<?xml version="1.0" encoding="UTF-8" standalone="no"?>
<!-- Created with Inkscape (http://www.inkscape.org/) -->

<svg
   xmlns:dc="http://purl.org/dc/elements/1.1/"
   xmlns:cc="http://creativecommons.org/ns#"
   xmlns:rdf="http://www.w3.org/1999/02/22-rdf-syntax-ns#"
   xmlns:svg="http://www.w3.org/2000/svg"
   xmlns="http://www.w3.org/2000/svg"
   xmlns:sodipodi="http://sodipodi.sourceforge.net/DTD/sodipodi-0.dtd"
   xmlns:inkscape="http://www.inkscape.org/namespaces/inkscape"
   width="730"
   height="560.41125"
   id="svg2"
   version="1.1"
   inkscape:version="0.48.5 r10040"
   sodipodi:docname="Documento nuevo 1">
  <defs
     id="defs4">
    <inkscape:path-effect
       effect="spiro"
       id="path-effect5495"
       is_visible="true" />
    <inkscape:path-effect
       effect="spiro"
       id="path-effect5174"
       is_visible="true" />
    <inkscape:path-effect
       effect="spiro"
       id="path-effect4340"
       is_visible="true" />
    <inkscape:path-effect
       effect="spiro"
       id="path-effect4340-4"
       is_visible="true" />
    <inkscape:path-effect
       effect="spiro"
       id="path-effect4340-1"
       is_visible="true" />
    <inkscape:path-effect
       effect="spiro"
       id="path-effect5495-3"
       is_visible="true" />
    <inkscape:path-effect
       effect="spiro"
       id="path-effect5495-0"
       is_visible="true" />
    <inkscape:path-effect
       effect="spiro"
       id="path-effect5495-2"
       is_visible="true" />
    <inkscape:path-effect
       effect="spiro"
       id="path-effect5495-4"
       is_visible="true" />
  </defs>
  <sodipodi:namedview
     id="base"
     pagecolor="#ffffff"
     bordercolor="#666666"
     borderopacity="1.0"
     inkscape:pageopacity="0.0"
     inkscape:pageshadow="2"
     inkscape:zoom="0.83510249"
     inkscape:cx="384.66029"
     inkscape:cy="295.05193"
     inkscape:document-units="px"
     inkscape:current-layer="layer1"
     showgrid="false"
     fit-margin-top="0"
     fit-margin-left="0"
     fit-margin-right="0"
     fit-margin-bottom="0"
     inkscape:window-width="1366"
     inkscape:window-height="720"
     inkscape:window-x="0"
     inkscape:window-y="29"
     inkscape:window-maximized="1" />
  <metadata
     id="metadata7">
    <rdf:RDF>
      <cc:Work
         rdf:about="">
        <dc:format>image/svg+xml</dc:format>
        <dc:type
           rdf:resource="http://purl.org/dc/dcmitype/StillImage" />
        <dc:title></dc:title>
      </cc:Work>
    </rdf:RDF>
  </metadata>
  <g
     inkscape:label="Capa 1"
     inkscape:groupmode="layer"
     id="layer1"
     transform="translate(-20.578799,-50.198866)">
    <g
       id="g5745">
      <g
         id="g5728">
        <path
           sodipodi:type="arc"
           style="fill:#fa911b;fill-opacity:1;stroke:none"
           id="path4256-6"
           sodipodi:cx="-38.041985"
           sodipodi:cy="431.16443"
           sodipodi:rx="171.65285"
           sodipodi:ry="138.71407"
           d="m 133.61086,431.16443 c 0,76.60966 -76.851595,138.71406 -171.652845,138.71406 -94.801245,0 -171.652845,-62.1044 -171.652845,-138.71406 0,-76.60966 76.8516,-138.71407 171.652845,-138.71407 94.80125,0 171.652845,62.10441 171.652845,138.71407 z"
           transform="matrix(1.3049695,0.37295696,-0.31723638,1.1737773,572.00348,-56.292886)" />
        <path
           sodipodi:type="arc"
           style="fill:#eb1c25;fill-opacity:1;stroke:none"
           id="path4256"
           sodipodi:cx="-38.041985"
           sodipodi:cy="431.16443"
           sodipodi:rx="171.65285"
           sodipodi:ry="138.71407"
           d="m 133.61086,431.16443 c 0,76.60966 -76.851595,138.71406 -171.652845,138.71406 -94.801245,0 -171.652845,-62.1044 -171.652845,-138.71406 0,-76.60966 76.8516,-138.71407 171.652845,-138.71407 94.80125,0 171.652845,62.10441 171.652845,138.71407 z"
           transform="matrix(1.2770075,-0.2405663,0.18205918,1.1612799,355.66126,-74.244099)" />
        <path
           style="fill:#f3b665;fill-opacity:1;stroke:none"
           d="m 547.92925,310.07777 c -33.76167,4.09054 -59.36566,29.21828 -88.90794,43.88564 -36.3594,20.44283 -77.63486,31.87156 -119.47224,29.65989 -39.71691,0.006 -78.52285,-9.42499 -117.24468,-17.21076 -17.39886,-1.20205 -35.28561,11.39553 -37.77118,29.27947 -4.90131,20.52016 5.5743,42.8128 23.81583,52.51715 32.78811,21.88303 71.16048,33.83742 109.49852,41.30947 54.78441,9.90079 114.21,4.19785 162.01952,-26.04396 36.77952,-22.08553 69.83079,-51.99289 91.44565,-89.60518 8.44791,-14.89261 14.23383,-35.05348 4.00308,-50.54625 -6.0344,-8.8454 -16.87381,-13.67214 -27.38656,-13.24547 z"
           id="path4131"
           inkscape:connector-curvature="0" />
        <path
           style="fill:#d58838;fill-opacity:1;stroke:none"
           d="m 548.68271,320.7339 c -36.5874,5.82026 -63.59925,34.71559 -96.80296,49.0315 -50.75805,26.14627 -110.37384,29.8216 -165.87688,19.8391 -23.80156,-3.73889 -59.02809,-14.28015 -71.3641,-12.17067 -12.336,2.10949 -24.80348,21.6946 -19.98301,36.58275 3.92875,17.50708 20.45398,27.69755 35.35318,34.66219 48.39295,25.57943 103.92204,37.53427 158.58034,33.78936 43.8374,-3.81152 85.727,-22.64915 119.01359,-51.38846 26.65239,-21.65219 51.26239,-48.27754 62.3077,-81.69703 2.38703,-11.47531 -2.68204,-25.71963 -15.10192,-28.0512 -1.99965,-0.49528 -4.0671,-0.71274 -6.12594,-0.59754 z"
           id="path4131-5"
           inkscape:connector-curvature="0"
           sodipodi:nodetypes="ccczccccccc" />
        <path
           id="path3749-7"
           style="fill:#552525;fill-opacity:1;stroke:none"
           d="m 548.06029,312.16916 c -31.28108,3.61286 -55.60181,26.52644 -82.88037,40.66593 -36.19098,21.08545 -77.60732,34.53035 -119.76706,32.86472 -41.23004,0.80186 -81.97034,-8.44441 -121.83087,-17.0631 -15.83244,-1.60186 -33.08482,8.52092 -36.42805,24.79792 -5.76032,19.0681 2.52863,41.16356 19.54869,51.1564 28.21935,19.91462 61.40922,31.01182 94.48553,39.40415 55.89431,12.98274 117.78341,11.46315 168.80733,-17.36186 37.08457,-20.38385 69.83339,-48.76577 93.62534,-84.0208 9.3508,-15.05706 19.21786,-33.73421 13.00534,-51.85322 -4.10035,-12.05607 -16.46048,-18.97341 -28.56588,-18.59014 z m -340.18197,51.69542 c 27.95016,-8.52784 64.65044,21.27179 163.87852,14.18773 99.22809,-7.08406 159.05577,-107.00917 205.26813,-59.56974 11.66047,14.21323 9.66431,34.99382 -1.64231,56.86533 -11.30661,21.87153 -41.86451,58.88675 -82.68939,85.01452 -46.80365,29.95414 -71.8335,33.28853 -101.36215,36.71147 -29.52865,3.42293 -78.44869,-0.43739 -122.6847,-15.58052 -37.04208,-12.68045 -78.75159,-32.93956 -86.24896,-56.02459 -5.73687,-17.66431 -6.72087,-50.79739 25.48086,-61.6042 z"
           inkscape:connector-curvature="0" />
        <path
           style="fill:#cf6239;fill-opacity:1;stroke:none"
           d="m 170.48999,385.92351 c 11.67132,-3.12441 47.52812,15.19236 95.05753,19.92865 30.11746,3.00119 73.10605,3.7635 103.60531,-0.40968 30.49927,-4.1732 92.54916,-25.4481 111.49512,-35.50246 18.94596,-10.05434 41.07146,-23.89835 60.47578,-37.44241 21.34965,-14.90188 29.07647,-27.13432 49.44829,-28.62039 20.37181,-1.48606 41.16365,13.37214 38.41428,43.04768 -6.29626,41.00633 -74.50215,88.41418 -117.08174,113.93059 -46.80365,28.15729 -106.10255,36.70058 -135.6312,37.63629 -29.52866,0.93571 -125.89908,-12.30737 -171.00434,-23.3924 -28.93572,-7.1112 -56.82647,-17.90234 -60.90843,-32.95157 -5.88195,-21.68538 -6.07234,-46.06576 26.1294,-56.2243 z"
           id="path3749-73-4"
           inkscape:connector-curvature="0"
           sodipodi:nodetypes="cszzszcczssc" />
        <path
           style="fill:#b84332;fill-opacity:1;stroke:none"
           d="m 550.05068,338.08795 c -43.94405,28.93489 -94.8211,60.99029 -146.58871,72.32694 -68.51513,16.53682 -133.6216,16.77538 -200.44889,-4.86043 -11.01517,-3.04536 -29.32549,-10.27591 -41.24808,-3.98062 -11.92258,6.2953 -22.52996,21.10703 -15.07094,40.28969 3.27707,13.67264 10.78131,17.14042 23.99775,21.43477 51.08392,22.79205 107.95633,24.07085 162.9662,27.65293 51.06049,2.68809 103.10657,-5.1206 149.11613,-28.09213 25.09629,-12.27157 47.37792,-29.5322 71.42403,-43.74588 23.51504,-15.21184 47.47093,-30.66 67.0524,-50.92064 13.20995,-17.15677 11.76675,-46.36063 -5.51161,-59.19129 -17.03647,-14.04578 -47.14676,16.98231 -65.68828,29.08666 z"
           id="path4007-1"
           inkscape:connector-curvature="0"
           sodipodi:nodetypes="ccczcccccccc" />
        <path
           style="font-size:medium;font-style:normal;font-variant:normal;font-weight:normal;font-stretch:normal;text-indent:0;text-align:start;text-decoration:none;line-height:normal;letter-spacing:normal;word-spacing:normal;text-transform:none;direction:ltr;block-progression:tb;writing-mode:lr-tb;text-anchor:start;baseline-shift:baseline;color:#000000;fill:#fa911b;fill-opacity:1;stroke:none;stroke-width:10;marker:none;visibility:visible;display:inline;overflow:visible;enable-background:accumulate;font-family:Sans;-inkscape-font-specification:Sans"
           d="m 166.56559,427.07238 c 4.3335,-1.08685 8.83067,1.04696 12.92482,-1.6143 9.29666,-3.07569 22.48276,-5.19775 28.19651,3.80085 3.64281,5.46993 3.47237,12.33575 4.61932,18.5518 11.921,-8.61246 23.02705,-21.8016 38.56605,-23.0699 12.5705,0.86743 17.73238,13.59664 22.74777,22.76146 5.96417,-8.05335 17.51134,-13.88156 26.97129,-8.90628 9.2616,3.3897 16.30079,10.4248 25.75881,13.56297 16.89921,-5.24687 28.60211,-19.5326 43.63306,-27.82228 8.47448,-4.19857 20.05229,-2.02169 23.7933,6.40874 3.33464,4.87878 10.73719,1.92943 15.83298,2.89394 8.69836,0.14592 18.38281,-3.3185 21.96603,-11.7637 5.31545,-9.68284 11.86694,-22.48042 24.74385,-23.32791 12.73069,-0.84985 24.5538,5.8223 37.4684,3.07264 7.78067,-0.40565 15.22622,-4.77114 18.14005,-11.92195 5.12169,-10.30104 7.59845,-24.73659 20.56262,-29.16843 13.05912,-5.00334 26.47512,0.9732 39.60498,-0.6459 10.14101,-6.29534 11.31205,-19.0301 11.88121,-29.10523 0.6623,-7.62902 12.09286,-10.74529 16.1389,-4.41117 4.53825,6.73029 1.01632,15.61421 -0.43213,23.03999 -3.59477,13.37513 -14.55525,28.00109 -30.11783,28.60773 -10.73642,0.78122 -21.76098,-4.2789 -32.22455,-0.51827 -4.18701,4.64249 -4.28501,11.24533 -7.52002,16.42337 -5.56582,13.41237 -19.14918,24.15668 -34.26887,25.06615 -13.19117,2.34533 -25.97118,-1.48985 -38.69309,-2.89179 -5.99669,4.55556 -7.24428,12.75111 -11.98155,18.3901 -9.76076,14.55479 -29.85448,18.92397 -46.02484,15.90165 -7.89472,-1.32781 -14.86597,-5.64692 -20.65461,-10.22089 -6.43588,2.06782 -11.13483,8.08688 -17.13118,11.42329 -11.6692,8.53575 -26.00048,19.34862 -41.03492,15.79506 -10.30756,-2.6081 -18.34057,-10.20567 -28.64086,-12.64786 -7.32942,4.28219 -14.89901,13.51254 -24.24146,10.34237 -10.79304,-3.63753 -10.81583,-17.71552 -19.92849,-22.84444 -10.10014,2.35688 -13.87974,13.60627 -22.52894,18.51306 -6.99903,5.7865 -19.17375,9.37339 -25.40339,1.72433 -5.77977,-5.86272 -4.5191,-14.98753 -6.00392,-22.21613 -5.23545,-0.57727 -10.36035,2.75113 -15.45485,3.80572 -6.39175,3.01395 -16.60993,2.61776 -18.17134,-5.12143 -0.98798,-4.68639 2.02417,-10.14823 6.90689,-11.86736 z"
           id="path4338-3"
           inkscape:connector-curvature="0" />
        <path
           style="font-size:medium;font-style:normal;font-variant:normal;font-weight:normal;font-stretch:normal;text-indent:0;text-align:start;text-decoration:none;line-height:normal;letter-spacing:normal;word-spacing:normal;text-transform:none;direction:ltr;block-progression:tb;writing-mode:lr-tb;text-anchor:start;baseline-shift:baseline;color:#000000;fill:#d40000;fill-opacity:1;stroke:none;stroke-width:10;marker:none;visibility:visible;display:inline;overflow:visible;enable-background:accumulate;font-family:Sans;-inkscape-font-specification:Sans"
           d="m 606.03125,317.09253 c -4.3895,0.83236 -7.57578,4.65666 -12.40883,3.95953 -9.72908,1.11031 -22.58818,4.71864 -23.99742,15.28442 -1.0106,6.49376 2.02581,12.65402 3.59375,18.77744 -14.43495,-2.81369 -30.05112,-10.12348 -44.6875,-4.75268 -11.0456,6.06338 -10.38814,19.78364 -11.09375,30.20718 -8.79354,-4.8064 -21.72058,-5.24986 -28.21875,3.23648 -6.98362,6.96393 -10.42002,16.30384 -17.6875,23.1219 -17.54085,2.33054 -34.15901,-5.72407 -51.28125,-6.93949 -9.45412,-0.25397 -19.0491,6.58129 -18.90625,15.80337 -0.979,5.82786 -8.93585,6.25784 -13.15625,9.27208 -7.83386,3.78329 -18.07808,4.70352 -24.875,-1.45787 -8.88865,-6.55769 -20.20651,-15.42371 -32.25,-10.78828 -11.91177,4.57192 -19.84266,15.59029 -32.71875,18.51502 -7.23242,2.89749 -15.82268,2.06016 -21.46875,-3.20733 -8.97225,-7.20013 -17.27914,-19.26309 -30.90625,-17.84439 -13.95316,0.93983 -23.6218,11.99539 -36.21875,16.03663 -11.8468,-1.45765 -18.2547,-12.52491 -23,-21.43077 -3.80317,-6.64654 -15.48613,-4.67743 -16.5,2.76996 -1.29435,8.01356 5.63108,14.59888 10.0625,20.73099 8.87658,10.63122 24.96368,19.30624 39.34375,13.32498 10.07286,-3.79718 17.95554,-13.01722 29.03125,-13.9956 5.74889,2.45642 8.60917,8.40839 13.71875,11.75047 10.68124,9.83774 27.51982,13.8887 41.625,8.3682 12.95741,-3.40781 22.94756,-12.25282 33.90625,-18.8649 7.35497,1.61796 11.92716,8.53306 18.59375,11.663 14.96829,9.11398 35.04028,4.64601 48.44887,-4.88419 6.60838,-4.51874 11.12306,-11.36495 14.45738,-17.94613 6.70946,-0.82438 13.50078,2.66662 20.34375,3.17816 14.1742,2.84975 31.72041,6.64903 43.875,-2.88659 8.26105,-6.69351 12.36342,-16.96108 20.6875,-23.50095 8.4499,0.81047 19.19461,6.01136 26.34375,-0.78725 8.26963,-7.83164 2.38154,-20.61917 8.5,-29.09919 10.15667,-2.09997 18.3088,6.52423 28.21875,7.34769 8.7814,2.31453 21.33732,0.46025 23.78125,-9.09714 2.78535,-7.7472 -2.18874,-15.50025 -3.875,-22.68453 4.50969,-2.72137 10.55832,-1.85134 15.625,-3.03238 7.06651,0.0529 16.1748,-4.59545 14.34375,-12.27531 -1.07021,-4.6683 -6.09663,-8.36152 -11.25,-7.87253 z"
           id="path4338"
           inkscape:connector-curvature="0" />
        <path
           style="fill:#91342d;fill-opacity:1;stroke:none"
           d="m 545.51393,406.66519 c -123.10407,76.31556 -361.77187,82.05277 -399.82155,26.06276 0,0 11.78299,26.27599 24.99943,30.57035 51.08392,22.79205 107.95633,24.07085 162.9662,27.65292 51.06049,2.68809 103.10657,-5.1206 149.11613,-28.09212 25.09629,-12.27158 47.37792,-29.53221 71.42403,-43.74589 23.51504,-15.21183 47.47093,-30.65999 67.0524,-50.92063 26.06407,-28.65016 -6.67412,-57.97634 -6.67412,-57.97634 7.48284,25.10173 5.96067,35.41802 -3.31195,46.03999 -15.78829,18.08583 -39.57129,33.80752 -65.75057,50.40896 z"
           id="path4007"
           inkscape:connector-curvature="0"
           sodipodi:nodetypes="ccccccccsc" />
        <path
           inkscape:connector-curvature="0"
           id="path3749-73-5"
           style="fill:#552525;fill-opacity:1;stroke:none"
           d="m 596.44539,304.66671 c -20.94595,-1.26711 -35.09415,17.04999 -51.45366,27.0625 -43.94405,28.93489 -89.93252,56.71194 -141.70014,68.04859 -68.51513,16.53682 -141.63496,12.8693 -208.46225,-8.7665 -11.01516,-3.04538 -23.82715,-7.59062 -34.17747,-2e-5 -14.21315,8.62658 -22.52996,26.67983 -17.42781,43.15568 3.27707,13.67265 14.08093,24.78317 27.29737,29.07752 51.08391,22.79206 107.95633,24.07086 162.9662,27.65292 51.06049,2.6881 103.10657,-5.12059 149.11613,-28.09211 25.09629,-12.27159 47.37792,-29.53222 71.42403,-43.7459 23.51504,-15.21182 47.47093,-30.65999 67.0524,-50.92063 13.20995,-17.15676 9.71103,-44.46681 -7.56734,-57.29747 -4.83602,-3.80354 -10.78087,-6.44846 -17.06746,-6.17458 z m -427.51621,75.89822 c 11.67132,-3.3238 43.17837,11.68585 89.52148,19.06896 29.93759,4.76949 74.64446,5.40228 105.14372,0.96278 30.49927,-4.4395 69.6477,-11.60844 111.34073,-34.26435 22.91256,-12.45064 46.3578,-26.10755 66.32139,-39.61843 17.24162,-11.66872 31.06739,-26.03114 45.38212,-27.67617 21.03154,-2.41692 26.53267,2.50261 36.83256,12.54443 11.66047,14.21322 17.25007,33.37548 5.94345,55.247 -11.3066,21.87152 -83.38662,64.55093 -124.21149,90.67869 -46.80365,29.95415 -106.10255,39.04263 -135.6312,40.03806 -29.52866,0.99542 -130.12952,-3.13462 -174.36553,-18.27775 -37.04207,-12.68045 -50.04988,-18.57679 -57.54725,-41.66182 -5.73687,-17.66431 -0.93172,-46.23459 31.27002,-57.0414 z" />
        <path
           style="fill:#f3b665;fill-opacity:1;stroke:none"
           d="m 207.36401,447.50528 c 34.38254,-11.13515 83.01269,23.36981 179.02459,15.63392 20.12993,-1.11268 55.47203,-12.67325 88.89938,-31.93466 30.48243,-17.56448 58.64887,-42.46169 86.62234,-53.21298 41.81962,-16.07291 77.59869,1.80932 54.39102,50.70158 -11.3066,21.87153 -25.68657,45.65454 -64.64255,74.56427 -46.23074,34.30842 -100.76369,49.80857 -133.72984,57.58577 -32.96614,7.7772 -104.69452,10.50214 -150.53938,1.53058 -57.38058,-11.22903 -77.85846,-34.99681 -88.71745,-56.66594 -11.17957,-22.30887 -5.80151,-52.04028 28.69189,-58.20254 z"
           id="path3749-2"
           inkscape:connector-curvature="0"
           sodipodi:nodetypes="ccsscszssc" />
        <path
           style="fill:#e7a44d;fill-opacity:1;stroke:none"
           d="m 224.44996,458.10251 c 42.58051,-7.7422 80.87206,35.39087 172.66406,15.73234 91.79199,-19.65853 87.77343,-45.03815 149.55556,-87.49081 48.04836,-33.17318 55.85686,8.95524 48.52547,20.59334 -7.33138,11.63811 -19.06071,79.71113 -53.82763,102.36145 -41.25939,26.88009 -82.96654,47.13361 -114.67938,51.7755 -31.71285,4.64188 -86.32235,10.90396 -148.75904,4.52455 -62.4367,-6.37942 -76.83681,-30.07894 -87.91484,-43.71923 -17.98277,-22.14203 -8.1447,-56.03494 34.4358,-63.77714 z"
           id="path3749-2-8"
           inkscape:connector-curvature="0"
           sodipodi:nodetypes="zzczszzsz" />
        <path
           style="fill:#d58838;fill-opacity:1;stroke:none"
           d="m 189.60345,482.59621 c 3.87254,87.1685 140.99238,63.74838 231.07161,53.20631 90.07921,-10.54208 215.71124,-121.86768 158.19442,-161.99849 0,0 24.49449,-7.51075 38.51181,9.41908 7.43083,8.9748 8.22726,22.13508 3.44844,34.19896 -4.77882,12.06388 -23.55877,54.14132 -64.5466,82.39521 -16.49383,11.36959 -33.34617,22.22271 -49.63017,30.76435 -23.75675,12.4614 -37.65271,17.29866 -65.73527,24.51688 -28.08256,7.21822 -87.35918,17.55822 -149.79586,11.1788 -98.33845,-9.19586 -105.67349,-53.63319 -101.51838,-83.6811 z"
           id="path3749-2-8-5"
           inkscape:connector-curvature="0"
           sodipodi:nodetypes="czcszsszcc" />
        <path
           id="path3749-9"
           style="fill:#552525;fill-opacity:1;stroke:none"
           d="m 590.58152,372.35474 c -35.17805,3.8254 -63.1481,28.30851 -92.98021,45.45932 -38.25998,24.60874 -79.96543,48.23503 -126.40612,49.19671 -49.64282,2.89705 -98.31737,-9.63889 -146.46663,-19.63153 -19.16379,-2.32609 -41.74852,5.76983 -48.41786,25.52825 -6.27691,16.69314 0.81656,35.22791 12.35015,47.60404 23.26388,28.69424 60.34385,41.24349 96.01675,43.55405 44.19525,3.96318 89.1428,3.55843 132.87067,-4.18279 64.89128,-13.19723 128.35983,-42.99975 172.54187,-93.91341 12.9123,-15.46186 25.54251,-32.47234 31.46777,-52.12173 3.75981,-13.27575 1.06894,-30.67499 -12.20546,-37.31013 -5.7215,-3.13504 -12.27325,-4.40156 -18.77093,-4.18278 z m -389.63067,70.58558 c 34.38254,-11.13516 85.87726,24.53094 181.88917,16.79506 96.01189,-7.73589 186.71499,-132.43058 238.71649,-81.732 11.66047,14.21323 9.66431,34.99382 -1.64231,56.86533 -11.30661,21.87153 -41.86451,58.88675 -82.68939,85.01452 -46.80365,29.95414 -108.49805,46.32515 -138.02671,49.74809 -29.52865,3.42293 -115.75647,7.38458 -159.99248,-7.75854 -37.04208,-12.68045 -62.02741,-38.80604 -69.52478,-61.89107 -5.73688,-17.66431 -0.93173,-46.23458 31.27001,-57.04139 z"
           inkscape:connector-curvature="0" />
      </g>
      <g
         transform="matrix(0.96421348,0,0,0.96421348,13.799173,8.6472916)"
         id="g5711">
        <path
           style="font-size:medium;font-style:normal;font-variant:normal;font-weight:normal;font-stretch:normal;text-indent:0;text-align:start;text-decoration:none;line-height:normal;letter-spacing:normal;word-spacing:normal;text-transform:none;direction:ltr;block-progression:tb;writing-mode:lr-tb;text-anchor:start;baseline-shift:baseline;color:#000000;fill:#eb1c25;fill-opacity:1;stroke:none;stroke-width:4;marker:none;visibility:visible;display:inline;overflow:visible;enable-background:accumulate;font-family:Sans;-inkscape-font-specification:Sans"
           d="m 763.21875,80.34375 -756.1875,181.625 0.90625,3.875 L 764.125,84.25 763.21875,80.34375 z"
           id="path5493"
           inkscape:connector-curvature="0" />
        <path
           style="font-size:medium;font-style:normal;font-variant:normal;font-weight:normal;font-stretch:normal;text-indent:0;text-align:start;text-decoration:none;line-height:normal;letter-spacing:normal;word-spacing:normal;text-transform:none;direction:ltr;block-progression:tb;writing-mode:lr-tb;text-anchor:start;baseline-shift:baseline;color:#000000;fill:#eb1c25;fill-opacity:1;stroke:none;stroke-width:4;marker:none;visibility:visible;display:inline;overflow:visible;enable-background:accumulate;font-family:Sans;-inkscape-font-specification:Sans"
           d="m 726.03125,97.25 -702.5625,168.6875 0.9375,3.875 702.5625,-168.65625 -0.9375,-3.90625 z"
           id="path5493-0"
           inkscape:connector-curvature="0" />
        <path
           style="font-size:medium;font-style:normal;font-variant:normal;font-weight:normal;font-stretch:normal;text-indent:0;text-align:start;text-decoration:none;line-height:normal;letter-spacing:normal;word-spacing:normal;text-transform:none;direction:ltr;block-progression:tb;writing-mode:lr-tb;text-anchor:start;baseline-shift:baseline;color:#000000;fill:#eb1c25;fill-opacity:1;stroke:none;stroke-width:4;marker:none;visibility:visible;display:inline;overflow:visible;enable-background:accumulate;font-family:Sans;-inkscape-font-specification:Sans"
           d="m 592.28125,113.34375 -561.25,134.625 0.90625,3.875 561.28125,-134.59375 -0.9375,-3.90625 z"
           id="path5493-7"
           inkscape:connector-curvature="0" />
        <path
           style="font-size:medium;font-style:normal;font-variant:normal;font-weight:normal;font-stretch:normal;text-indent:0;text-align:start;text-decoration:none;line-height:normal;letter-spacing:normal;word-spacing:normal;text-transform:none;direction:ltr;block-progression:tb;writing-mode:lr-tb;text-anchor:start;baseline-shift:baseline;color:#000000;fill:#eb1c25;fill-opacity:1;stroke:none;stroke-width:4;marker:none;visibility:visible;display:inline;overflow:visible;enable-background:accumulate;font-family:Sans;-inkscape-font-specification:Sans"
           d="m 747.21875,68.34375 -698.625,167.71875 0.9375,3.90625 L 748.125,72.25 747.21875,68.34375 z"
           id="path5493-1"
           inkscape:connector-curvature="0" />
        <g
           id="g5313"
           transform="translate(-4.9680758,0)">
          <path
             inkscape:connector-curvature="0"
             id="path5238-3"
             d="m 725.75,43.875 c -14.50618,4.155869 -29.7662,5.79177 -43.71875,11.59375 -0.94698,4.003372 -5.24929,-0.226552 -8,0.65625 -17.45984,-1.165529 -33.7852,11.418339 -40.21875,26.4375 -6.97559,-11.688063 -22.56442,-12.822504 -34.57736,-9.913422 -15.786,2.934719 -31.03985,10.716474 -41.39139,23.038422 2.41309,-9.415764 -3.45377,-19.566081 -12.6875,-22.25 -11.82175,-3.186469 -24.0255,1.403496 -35.69202,3.292149 -12.35374,2.83834 -24.60964,6.186057 -36.96423,8.801601 -1.59904,4.418129 -2.6123,11.521559 -4.03125,14.4375 -1.30745,-5.694504 -8.2359,-4.285625 -12.28834,-2.937778 -10.39929,2.553409 -20.93375,4.871778 -31.18041,7.625278 -5.78492,2.43993 -5.54499,9.24122 -6.5625,14.28125 -1.82848,2.16944 -5.96611,1.66571 -7.375,4.9375 -1.69761,1.98865 -2.09691,5.68685 -2.9375,7.34375 -11.53903,-10.28209 -28.5376,-6.46414 -41.875,-2.4375 -11.6922,3.87363 -22.33735,10.76102 -30.28125,20.15625 2.84436,-10.87484 5.68334,-21.75109 8.53125,-32.625 -31.40708,7.58163 -62.84275,15.04417 -94.25,22.625 -2.95208,10.54291 -5.61573,22.43961 -8.6875,32.1875 -7.45543,-10.66376 -22.9215,-9.26337 -33.05748,-3.48758 -3.63995,2.52155 -7.47981,2.89072 -11.66127,2.86258 -11.69969,3.74986 -23.90406,5.82084 -35.90625,8.9375 -2.50099,0.42785 -2.64297,-4.34209 -4.9375,-5.625 -9.44883,-10.22078 -24.6865,-8.82706 -36.9375,-5.6875 -24.069196,5.64028 -46.36865,23.43675 -51.563936,48.35635 -6.229567,21.89696 -13.515352,43.93537 -15.404814,66.70615 1.70206,13.49488 16.542396,22.23085 29.4375,19.375 C 101.72504,301.03136 121.81896,291.98983 134.5,276 c -2.32383,8.8956 -4.63923,17.79339 -6.96875,26.6875 16.44707,-3.95143 32.89711,-7.89054 49.34375,-11.84375 2.42524,-4.69777 2.17674,-11.54606 4.75,-15.25 13.04238,3.23032 27.04471,-3.11306 35.84375,-12.28125 -0.42178,5.44068 6.29143,5.39043 9.65625,3.3125 27.65232,-6.97898 55.49528,-13.38782 83.21875,-20.15625 1.65326,-5.84583 3.12691,-12.10389 4.6875,-17.75 3.9431,8.74482 14.08848,13.04265 23.28125,11.25 22.75154,-0.92501 46.37574,-11.77725 58.5625,-31.34375 2.4769,11.43832 17.1663,14.58756 26.81624,10.45457 30.07071,-7.50535 60.76829,-12.95973 90.21501,-22.67332 9.93755,-3.78003 18.39757,-12.71065 23.03125,-21.0625 3.9742,9.88907 15.80318,13.21778 25.55955,11.2358 18.78703,-1.49085 37.53763,-8.96354 50.2217,-23.1733 -0.27988,9.39267 7.16812,18.8572 17.05893,18.14694 20.99713,1.26384 42.04119,-6.5237 58.65982,-18.80319 10.92922,-8.86099 16.44583,-22.42142 18.61511,-36.02365 C 714.4435,98.868526 721.66324,70.965795 729,43.09375 c -1.08333,0.260417 -2.16667,0.520833 -3.25,0.78125 z M 622.3125,148.9375 c -0.5541,0.39203 -0.0188,-0.6785 0,0 z m -85.34375,20.1875 c -3.21979,0.0666 -0.75603,4.13022 -0.25,5.9375 0.0833,-1.97917 0.16667,-3.95833 0.25,-5.9375 z"
             style="font-size:147.12733459px;font-style:normal;font-variant:normal;font-weight:bold;font-stretch:normal;line-height:125%;letter-spacing:0px;word-spacing:0px;fill:#eb1c25;fill-opacity:1;stroke:none;font-family:Impact;-inkscape-font-specification:Impact Bold" />
          <g
             id="text5221"
             style="font-size:147.12733459px;font-style:normal;font-variant:normal;font-weight:bold;font-stretch:normal;line-height:125%;letter-spacing:0px;word-spacing:0px;fill:#fa911b;fill-opacity:1;stroke:none;font-family:Impact;-inkscape-font-specification:Impact Bold"
             transform="matrix(1.1016236,-0.2643285,-0.25374683,0.96863622,0,0)">
            <path
               id="path5238"
               style="fill:#fa911b;fill-opacity:1"
               d="m 197.85677,296.34381 c -8e-5,11.68593 -0.28743,19.97141 -0.86208,24.85647 -0.52689,4.83722 -2.25104,9.26731 -5.17244,13.29031 -2.87365,4.02302 -6.77693,7.11212 -11.70984,9.2673 -4.93304,2.15519 -10.68019,3.23278 -17.24149,3.23278 -6.22612,0 -11.8296,-1.00575 -16.81045,-3.01726 -4.93299,-2.0594 -8.90811,-5.12455 -11.92536,-9.19546 -3.01726,-4.07089 -4.81325,-8.50099 -5.38796,-13.29031 -0.57472,-4.78927 -0.86208,-13.17054 -0.86207,-25.14383 l 0,-19.89955 c -1e-5,-11.68581 0.2634,-19.94735 0.79023,-24.78463 0.57471,-4.88499 2.29886,-9.33904 5.17245,-13.36215 2.92146,-4.0229 6.84868,-7.112 11.78168,-9.2673 4.93295,-2.15507 10.68011,-3.23266 17.24148,-3.23278 6.22605,1.2e-4 11.80558,1.02982 16.73861,3.0891 4.98081,2.01162 8.97987,5.05282 11.9972,9.12362 3.01719,4.07101 4.81317,8.50111 5.38796,13.29031 0.57465,4.78939 0.862,13.17066 0.86208,25.14383 l 0,19.89955 m -30.24444,-38.21862 c -4e-5,-5.41182 -0.31135,-8.86012 -0.93391,-10.3449 -0.57476,-1.53247 -1.79603,-2.29876 -3.66382,-2.29886 -1.58051,1e-4 -2.80178,0.62271 -3.66381,1.86783 -0.81422,1.19742 -1.22131,4.78939 -1.22128,10.77593 l 0,54.31067 c -3e-5,6.75294 0.26338,10.91963 0.79024,12.50008 0.57468,1.58049 1.86779,2.37072 3.87933,2.3707 2.05936,2e-5 3.37642,-0.90995 3.95118,-2.7299 0.57467,-1.81991 0.86203,-6.15423 0.86207,-13.00295 l 0,-53.4486"
               inkscape:connector-curvature="0" />
            <path
               id="path5240"
               style="fill:#fa911b;fill-opacity:1"
               d="m 237.87138,249.21708 -0.50288,8.40523 c 2.58619,-3.40032 5.43582,-5.93864 8.5489,-7.61499 3.113,-1.67616 6.5134,-2.51429 10.20122,-2.51438 4.50188,9e-5 8.38121,1.22136 11.638,3.66381 3.30455,2.39474 5.36394,5.17254 6.1782,8.33339 0.81411,3.16102 1.2212,8.52503 1.22127,16.09205 l 0,40.15829 c -7e-5,8.66865 -0.5269,14.84685 -1.58047,18.5346 -1.00582,3.63987 -3.11311,6.56134 -6.32188,8.76442 -3.161,2.15518 -6.99244,3.23277 -11.49432,3.23277 -3.59203,0 -6.92059,-0.83812 -9.9857,-2.51438 -3.06519,-1.67625 -5.86693,-4.16669 -8.40522,-7.47131 l 0,21.83922 -29.02316,0 0,-108.90872 29.52604,0 m 8.26154,27.73006 c -4e-5,-5.89077 -0.21556,-9.45879 -0.64655,-10.70409 -0.43108,-1.24514 -1.62841,-1.86775 -3.59198,-1.86783 -1.91576,8e-5 -3.16097,0.71848 -3.73565,2.15519 -0.52686,1.43687 -0.79027,4.90911 -0.79024,10.41673 l 0,39.51173 c -3e-5,5.74719 0.28732,9.33916 0.86207,10.77593 0.57469,1.43681 1.8199,2.1552 3.73566,2.15519 1.86779,10e-6 3.01722,-0.64654 3.4483,-1.93967 0.47888,-1.34099 0.71835,-4.54981 0.71839,-9.62649 l 0,-40.87669"
               inkscape:connector-curvature="0" />
            <path
               id="path5242"
               style="fill:#fa911b;fill-opacity:1"
               d="m 355.18531,228.23995 0,116.30818 -30.24444,0 0,-48.85088 -9.05178,0 0,48.85088 -30.24443,0 0,-116.30818 30.24443,0 0,41.59508 9.05178,0 0,-41.59508 30.24444,0"
               inkscape:connector-curvature="0" />
            <path
               id="path5244"
               style="fill:#fa911b;fill-opacity:1"
               d="m 432.0536,282.6943 0,23.34784 c -7e-5,8.57288 -0.43111,14.87081 -1.29311,18.8938 -0.86215,3.97513 -2.70602,7.71078 -5.53165,11.20696 -2.82574,3.4483 -6.46561,6.01058 -10.9196,7.68683 -4.40621,1.62836 -9.48286,2.44254 -15.22998,2.44254 -6.4177,0 -11.85355,-0.69445 -16.30757,-2.08334 -4.45407,-1.43679 -7.92631,-3.56803 -10.41673,-6.39372 -2.44255,-2.87357 -4.19065,-6.32186 -5.24429,-10.34489 -1.05365,-4.07088 -1.58047,-10.15329 -1.58047,-18.24724 l 0,-24.42543 c 0,-8.86014 0.95786,-15.78068 2.87359,-20.76162 1.91571,-4.98079 5.364,-8.97985 10.34489,-11.9972 4.98085,-3.01717 11.35061,-4.5258 19.10931,-4.52589 6.5134,9e-5 12.09293,0.9819 16.73861,2.94542 4.69345,1.91581 8.30937,4.43019 10.84776,7.54315 2.53827,3.11313 4.26241,6.32195 5.17245,9.62649 0.95779,3.30469 1.43672,8.33345 1.43679,15.0863 m -29.02317,-7.18395 c -4e-5,-4.88501 -0.26345,-7.95016 -0.79023,-9.19546 -0.52686,-1.29303 -1.65235,-1.93959 -3.37646,-1.93967 -1.72418,8e-5 -2.87361,0.64664 -3.4483,1.93967 -0.57475,1.2453 -0.8621,4.31045 -0.86207,9.19546 l 0,43.03187 c -3e-5,4.50197 0.28732,7.44738 0.86207,8.83626 0.57469,1.34102 1.70017,2.01152 3.37646,2.01151 1.72411,10e-6 2.8496,-0.6226 3.37646,-1.86783 0.57467,-1.2452 0.86203,-3.92721 0.86207,-8.04603 l 0,-43.96578"
               inkscape:connector-curvature="0" />
            <path
               id="path5246"
               style="fill:#fa911b;fill-opacity:1"
               d="m 472.28373,236.50149 0,15.01446 7.8305,0 0,15.0863 -7.8305,0 0,51.00606 c -4e-5,6.274 0.31126,9.77019 0.93391,10.48857 0.67046,0.71841 3.37642,1.0776 8.11786,1.07759 l 0,15.37366 -11.70984,0 c -6.60926,0 -11.32672,-0.26342 -14.15238,-0.79024 -2.82571,-0.57471 -5.31614,-1.84388 -7.47131,-3.80749 -2.1552,-2.0115 -3.4962,-4.28642 -4.02302,-6.82476 -0.52683,-2.58621 -0.79024,-8.62072 -0.79023,-18.10356 l 0,-48.41983 -6.25004,0 0,-15.0863 6.25004,0 0,-15.01446 29.09501,0"
               inkscape:connector-curvature="0" />
            <path
               id="path5248"
               style="fill:#fa911b;fill-opacity:1"
               d="m 487.37001,228.23995 22.62945,0 c 14.60733,1.1e-4 24.47328,0.67061 29.59788,2.0115 5.17239,1.34112 9.09961,3.5442 11.78169,6.60924 2.68193,3.06525 4.35819,6.4896 5.02876,10.27305 0.67043,3.73575 1.00568,11.11126 1.00576,22.12657 l 0,40.73301 c -8e-5,10.4407 -0.50296,17.43307 -1.50863,20.97714 -0.95794,3.4962 -2.65814,6.25004 -5.10061,8.26154 -2.44261,1.96362 -5.45987,3.35251 -9.05178,4.16669 -3.59203,0.76629 -9.00394,1.14944 -16.23573,1.14944 l -38.14679,0 0,-116.30818 m 30.24444,19.89954 0,76.50909 c 4.35823,2e-5 7.04023,-0.86205 8.04603,-2.58622 1.00571,-1.77202 1.50858,-6.53737 1.50863,-14.29607 l 0,-45.18705 c -5e-5,-5.26815 -0.16767,-8.6446 -0.50288,-10.12938 -0.33529,-1.48459 -1.10158,-2.56218 -2.29886,-3.23278 -1.19737,-0.71829 -3.44834,-1.07749 -6.75292,-1.07759"
               inkscape:connector-curvature="0" />
            <path
               id="path5250"
               style="fill:#fa911b;fill-opacity:1"
               d="m 633.49162,282.6943 0,23.34784 c -7e-5,8.57288 -0.43111,14.87081 -1.29311,18.8938 -0.86215,3.97513 -2.70603,7.71078 -5.53165,11.20696 -2.82575,3.4483 -6.46561,6.01058 -10.9196,7.68683 -4.40621,1.62836 -9.48286,2.44254 -15.22998,2.44254 -6.4177,0 -11.85355,-0.69445 -16.30757,-2.08334 -4.45407,-1.43679 -7.92631,-3.56803 -10.41673,-6.39372 -2.44255,-2.87357 -4.19065,-6.32186 -5.24429,-10.34489 -1.05365,-4.07088 -1.58047,-10.15329 -1.58047,-18.24724 l 0,-24.42543 c 0,-8.86014 0.95786,-15.78068 2.87358,-20.76162 1.91572,-4.98079 5.36401,-8.97985 10.34489,-11.9972 4.98086,-3.01717 11.35062,-4.5258 19.10932,-4.52589 6.5134,9e-5 12.09293,0.9819 16.7386,2.94542 4.69346,1.91581 8.30938,4.43019 10.84777,7.54315 2.53826,3.11313 4.26241,6.32195 5.17245,9.62649 0.95779,3.30469 1.43672,8.33345 1.43679,15.0863 m -29.02317,-7.18395 c -4e-5,-4.88501 -0.26345,-7.95016 -0.79023,-9.19546 -0.52687,-1.29303 -1.65235,-1.93959 -3.37646,-1.93967 -1.72418,8e-5 -2.87362,0.64664 -3.4483,1.93967 -0.57475,1.2453 -0.8621,4.31045 -0.86207,9.19546 l 0,43.03187 c -3e-5,4.50197 0.28732,7.44738 0.86207,8.83626 0.57468,1.34102 1.70017,2.01152 3.37646,2.01151 1.72411,10e-6 2.84959,-0.6226 3.37646,-1.86783 0.57467,-1.2452 0.86203,-3.92721 0.86207,-8.04603 l 0,-43.96578"
               inkscape:connector-curvature="0" />
            <path
               id="path5252"
               style="fill:#fa911b;fill-opacity:1"
               d="m 709.06679,249.21708 0,73.41999 c -7e-5,9.91387 -0.23954,16.33153 -0.7184,19.25299 -0.43111,2.87358 -2.03552,5.91479 -4.81325,9.12362 -2.77785,3.25672 -6.65718,5.72321 -11.638,7.39947 -4.93303,1.72414 -11.15911,2.58621 -18.67827,2.58623 -9.24338,-2e-5 -16.66679,-1.58049 -22.27025,-4.74141 -5.60349,-3.11306 -8.50102,-9.2673 -8.69259,-18.46276 l 28.1611,0 c -4e-5,4.21459 1.53254,6.32188 4.59773,6.32188 2.20303,0 3.66377,-0.64656 4.38221,-1.93967 0.71835,-1.29311 1.07755,-3.99906 1.07759,-8.11786 l 0,-7.18396 c -2.49048,2.25099 -5.12459,3.95119 -7.90235,5.10061 -2.72993,1.14944 -5.60351,1.72416 -8.62074,1.72415 -5.22036,1e-5 -9.53073,-1.05364 -12.93111,-3.16094 -3.35252,-2.10728 -5.65139,-4.86112 -6.8966,-8.26154 -1.24522,-3.44828 -1.86783,-8.33336 -1.86783,-14.65527 l 0,-34.62664 c 0,-9.0517 1.62836,-15.56515 4.88509,-19.54035 3.25671,-3.97503 8.21364,-5.96259 14.87078,-5.96268 3.63984,9e-5 6.94446,0.74243 9.91386,2.22702 3.01722,1.48478 5.69922,3.7118 8.04602,6.68108 l 2.08335,-7.18396 27.01166,0 m -29.09501,25.28752 c -4e-5,-4.35819 -0.26345,-7.13599 -0.79023,-8.33339 -0.47897,-1.19724 -1.58051,-1.79591 -3.30462,-1.79599 -1.67629,8e-5 -2.87362,0.69453 -3.59198,2.08335 -0.67053,1.34108 -1.00578,4.02309 -1.00575,8.04603 l 0,32.04042 c -3e-5,4.26251 0.26338,7.0403 0.79023,8.33338 0.52679,1.24525 1.62833,1.86786 3.30462,1.86783 1.91568,3e-5 3.1609,-0.76626 3.73566,-2.29886 0.57467,-1.53255 0.86203,-5.00479 0.86207,-10.41673 l 0,-29.52604"
               inkscape:connector-curvature="0" />
          </g>
        </g>
      </g>
    </g>
  </g>
</svg>
